<svg xmlns="http://www.w3.org/2000/svg" xmlns:xlink="http://www.w3.org/1999/xlink"><symbol id="icon-accept" viewBox="0 0 71 64">
<rect x="3" y="3" width="58" height="58" rx="29" stroke="#ffc341" stroke-width="6"/>
<path d="M18 27.88L32.1972 43L66 7" stroke="#ffc341" stroke-width="9" stroke-linecap="round" stroke-linejoin="round"/>
</symbol><symbol id="icon-arrow" viewBox="0 0 17 11">
<path d="M1 1L8.5 9L16 1" stroke-width="2"/>
</symbol><symbol id="icon-circle_big" viewBox="0 0 76 76">
<circle cx="38" cy="38" r="37.5" stroke="white" stroke-dasharray="4 4"/>
</symbol><symbol id="icon-circle_small" viewBox="0 0 54 54">
<circle cx="27" cy="27" r="26.5" stroke="white"/>
</symbol><symbol id="icon-close" viewBox="0 0 18 17">
<path fill-rule="evenodd" clip-rule="evenodd" d="M7.48467 8.5L0 1.50703L1.41767 2.46254e-07L9 7.08422L16.5823 0L18 1.50703L10.5153 8.5L18 15.493L16.5823 17L9 9.91578L1.41767 17L6.13436e-07 15.493L7.48467 8.5Z"/>
</symbol><symbol id="icon-facebook" viewBox="0 0 11 22">
<path d="M8.53782 4.18705H10.4V0.943455C10.0787 0.899255 8.97383 0.799805 7.68704 0.799805C5.00211 0.799805 3.16287 2.48875 3.16287 5.59296V8.44981H0.200012V12.0759H3.16287V21.1998H6.79546V12.0768H9.63848L10.0898 8.45066H6.79461V5.95251C6.79546 4.90445 7.07764 4.18705 8.53782 4.18705Z" fill="black"/>
</symbol><symbol id="icon-how-to-road__line" viewBox="0 0 2 193">
<path opacity="0.2" d="M1 0.5V193" stroke="#484848" stroke-dasharray="4 4"/>
</symbol><symbol id="icon-insta" viewBox="0 0 24 24">
  <path d="M12 8.3999C10.0149 8.3999 8.40002 10.0148 8.40002 11.9999C8.40002 13.985 10.0149 15.5999 12 15.5999C13.9852 15.5999 15.6 13.985 15.6 11.9999C15.6 10.0148 13.9852 8.3999 12 8.3999Z"/>
  <path fill-rule="evenodd" clip-rule="evenodd" d="M2.40002 17.6106V6.3892C2.40002 4.18596 4.18608 2.3999 6.38932 2.3999H17.6107C19.814 2.3999 21.6 4.18596 21.6 6.3892V17.6106C21.6 19.8138 19.814 21.5999 17.6107 21.5999H6.38932C4.18608 21.5999 2.40002 19.8138 2.40002 17.6106ZM6.55995 9.96611C4.926 14.7018 9.29815 19.0739 14.0338 17.44C15.63 16.8894 16.8896 15.6299 17.4401 14.0338C19.074 9.29803 14.7019 4.92588 9.96612 6.55982C8.37002 7.11037 7.11049 8.37002 6.55995 9.96611ZM18 6.59993C18.6628 6.59993 19.2 6.06268 19.2 5.39993C19.2 4.73719 18.6628 4.19993 18 4.19993C17.3373 4.19993 16.8 4.73719 16.8 5.39993C16.8 6.06268 17.3373 6.59993 18 6.59993Z"/>
</symbol><symbol id="icon-line" viewBox="0 0 2 56">
<path d="M1 0V55.5" stroke="white"/>
</symbol><symbol id="icon-mouse" viewBox="-105 0 512 512.00002"><path d="m150.601562 0c-83.042968 0-150.601562 67.558594-150.601562 150.601562v210.796876c0 83.042968 67.558594 150.601562 150.601562 150.601562 83.042969 0 150.601563-67.558594 150.601563-150.601562v-210.796876c0-83.042968-67.558594-150.601562-150.601563-150.601562zm119.882813 361.398438c0 66.101562-53.78125 119.882812-119.882813 119.882812-66.101562 0-119.882812-53.78125-119.882812-119.882812v-210.796876c0-66.101562 53.78125-119.882812 119.882812-119.882812 66.101563 0 119.882813 53.78125 119.882813 119.882812zm0 0"/><path d="m150.605469 101.851562c-8.484375 0-15.359375 6.875-15.359375 15.359376v70.695312c0 8.480469 6.875 15.359375 15.359375 15.359375 8.480469 0 15.359375-6.878906 15.359375-15.359375v-70.695312c0-8.484376-6.875-15.359376-15.359375-15.359376zm0 0"/></symbol><symbol id="icon-nav" viewBox="0 0 511.998 511.998">
<g>
	<g>
		<path d="M505.743,6.249c-6.08-6.101-15.211-7.893-23.168-4.672l-469.333,192c-8.768,3.605-14.123,12.544-13.12,21.973
			c0.981,9.429,8.064,17.067,17.387,18.773l220.139,40.021l40.043,220.139c1.685,9.323,9.323,16.405,18.752,17.408
			c0.747,0.064,1.493,0.107,2.219,0.107c8.576,0,16.448-5.184,19.755-13.269l192-469.333
			C513.658,21.459,511.823,12.329,505.743,6.249z"/>
	</g>
</g>
<g>
</g>
<g>
</g>
<g>
</g>
<g>
</g>
<g>
</g>
<g>
</g>
<g>
</g>
<g>
</g>
<g>
</g>
<g>
</g>
<g>
</g>
<g>
</g>
<g>
</g>
<g>
</g>
<g>
</g>
</symbol><symbol id="icon-pin" viewBox="0 0 512 512">
<g>
	<g>
		<path d="M256,0C161.896,0,85.333,76.563,85.333,170.667c0,28.25,7.063,56.26,20.49,81.104L246.667,506.5
			c1.875,3.396,5.448,5.5,9.333,5.5s7.458-2.104,9.333-5.5l140.896-254.813c13.375-24.76,20.438-52.771,20.438-81.021
			C426.667,76.563,350.104,0,256,0z M256,256c-47.052,0-85.333-38.281-85.333-85.333c0-47.052,38.281-85.333,85.333-85.333
			s85.333,38.281,85.333,85.333C341.333,217.719,303.052,256,256,256z"/>
	</g>
</g>
<g>
</g>
<g>
</g>
<g>
</g>
<g>
</g>
<g>
</g>
<g>
</g>
<g>
</g>
<g>
</g>
<g>
</g>
<g>
</g>
<g>
</g>
<g>
</g>
<g>
</g>
<g>
</g>
<g>
</g>
</symbol><symbol id="icon-play" viewBox="0 0 15 19">
<path d="M15 9.5L0 19V0L15 9.5Z"/>
</symbol><symbol id="icon-telegram" viewBox="0 0 22 18">
<path d="M8.63262 11.8632L8.2687 16.8888C8.78938 16.8888 9.01488 16.6692 9.2853 16.4055L11.7264 14.115L16.7847 17.7519C17.7124 18.2595 18.366 17.9922 18.6163 16.914L21.9365 1.63926L21.9374 1.63836C22.2317 0.291963 21.4415 -0.234534 20.5377 0.0957645L1.02135 7.43163C-0.310594 7.93922 -0.290427 8.66822 0.794932 8.99852L5.78447 10.5222L17.3742 3.40235C17.9196 3.04775 18.4155 3.24395 18.0076 3.59855L8.63262 11.8632Z"/>
</symbol><symbol id="icon-twitter" viewBox="0 0 24 18">
<path d="M23.0768 2.1309C22.2529 2.49228 21.3751 2.73182 20.4599 2.84812C21.4014 2.28597 22.12 1.4026 22.4578 0.337842C21.58 0.861221 20.6108 1.23091 19.5779 1.43722C18.7443 0.549686 17.5564 0 16.2604 0C13.7459 0 11.7217 2.0409 11.7217 4.54287C11.7217 4.90287 11.7521 5.24902 11.8269 5.57855C8.05108 5.3944 4.71004 3.58473 2.4656 0.827991C2.07376 1.50783 1.84392 2.28597 1.84392 3.12366C1.84392 4.69656 2.65391 6.09086 3.86128 6.89808C3.13159 6.88423 2.41576 6.67239 1.8093 6.3387C1.8093 6.35255 1.8093 6.37055 1.8093 6.38855C1.8093 8.5956 3.38359 10.4288 5.44803 10.8511C5.07834 10.9522 4.67542 11.0006 4.25727 11.0006C3.96651 11.0006 3.67297 10.984 3.39744 10.9231C3.98589 12.7217 5.65572 14.044 7.64124 14.0869C6.09602 15.2957 4.13405 16.024 2.01007 16.024C1.63761 16.024 1.28038 16.0074 0.923157 15.9617C2.93498 17.259 5.31926 17.9998 7.89047 17.9998C16.2479 17.9998 20.8171 11.0768 20.8171 5.07594C20.8171 4.87518 20.8102 4.68133 20.8005 4.48887C21.7019 3.84919 22.4592 3.05027 23.0768 2.1309Z" fill="black"/>
</symbol><symbol id="icon-whatsapp" viewBox="0 0 20 20">
<path d="M10.0025 0H9.9975C4.48375 0 0 4.485 0 10C0 12.1875 0.705 14.215 1.90375 15.8612L0.6575 19.5763L4.50125 18.3475C6.0825 19.395 7.96875 20 10.0025 20C15.5162 20 20 15.5138 20 10C20 4.48625 15.5162 0 10.0025 0ZM15.8212 14.1213C15.58 14.8025 14.6225 15.3675 13.8587 15.5325C13.3363 15.6437 12.6537 15.7325 10.3562 14.78C7.4175 13.5625 5.525 10.5763 5.3775 10.3825C5.23625 10.1887 4.19 8.80125 4.19 7.36625C4.19 5.93125 4.91875 5.2325 5.2125 4.9325C5.45375 4.68625 5.8525 4.57375 6.235 4.57375C6.35875 4.57375 6.47 4.58 6.57 4.585C6.86375 4.5975 7.01125 4.615 7.205 5.07875C7.44625 5.66 8.03375 7.095 8.10375 7.2425C8.175 7.39 8.24625 7.59 8.14625 7.78375C8.0525 7.98375 7.97 8.0725 7.8225 8.2425C7.675 8.4125 7.535 8.5425 7.3875 8.725C7.2525 8.88375 7.1 9.05375 7.27 9.3475C7.44 9.635 8.0275 10.5937 8.8925 11.3637C10.0087 12.3575 10.9137 12.675 11.2375 12.81C11.4787 12.91 11.7662 12.8863 11.9425 12.6988C12.1663 12.4575 12.4425 12.0575 12.7238 11.6638C12.9237 11.3813 13.1763 11.3462 13.4412 11.4462C13.7113 11.54 15.14 12.2462 15.4338 12.3925C15.7275 12.54 15.9212 12.61 15.9925 12.7338C16.0625 12.8575 16.0625 13.4388 15.8212 14.1213Z"/>
</symbol></svg>